<?xml version="1.0" encoding="UTF-8"?>
<svg xmlns="http://www.w3.org/2000/svg" xmlns:xlink="http://www.w3.org/1999/xlink" width="64pt" height="64pt" viewBox="0 0 64 64" version="1.1">
<g id="surface8315185">
<path style=" stroke:none;fill-rule:nonzero;fill:rgb(40.392157%,40.392157%,79.215686%);fill-opacity:1;" d="M 39.667969 7.835938 C 39.03125 7.8125 38.386719 7.882812 37.75 8.050781 C 36.050781 8.5 34.648438 9.597656 33.800781 11.097656 L 32 14.347656 C 31.601562 15.050781 31.851562 16 32.550781 16.398438 L 41.199219 21.398438 C 41.449219 21.550781 41.699219 21.597656 41.949219 21.597656 C 42.101562 21.597656 42.199219 21.601562 42.351562 21.550781 C 42.75 21.449219 43.050781 21.199219 43.25 20.847656 L 45.097656 17.597656 C 45.949219 16.101562 46.199219 14.351562 45.75 12.648438 C 45.300781 10.949219 44.199219 9.550781 42.699219 8.699219 C 41.761719 8.167969 40.726562 7.871094 39.667969 7.832031 Z M 30.046875 19.0625 C 29.5625 19.101562 29.097656 19.363281 28.847656 19.800781 L 13.75 46 C 12.050781 48.898438 11.101562 52.148438 10.898438 55.449219 L 10.5 61.898438 C 10.449219 62.449219 10.75 63 11.25 63.300781 C 11.5 63.449219 11.75 63.5 12 63.5 C 12.300781 63.5 12.597656 63.398438 12.847656 63.25 L 18.25 59.699219 C 21 57.851562 23.351562 55.398438 25 52.5 L 40.152344 26.300781 C 40.550781 25.601562 40.300781 24.648438 39.597656 24.25 C 38.898438 23.851562 37.949219 24.101562 37.550781 24.800781 L 22.402344 51 C 20.949219 53.449219 18.949219 55.601562 16.550781 57.199219 L 13.648438 59.101562 L 13.847656 55.648438 C 14 52.800781 14.851562 50 16.300781 47.5 L 31.449219 21.300781 C 31.851562 20.601562 31.601562 19.648438 30.898438 19.25 C 30.636719 19.101562 30.339844 19.042969 30.046875 19.0625 Z M 24.5 60.5 C 23.648438 60.5 23 61.148438 23 62 C 23 62.851562 23.648438 63.5 24.5 63.5 L 44.5 63.5 C 45.351562 63.5 46 62.851562 46 62 C 46 61.148438 45.351562 60.5 44.5 60.5 Z M 52 60.5 C 51.171875 60.5 50.5 61.171875 50.5 62 C 50.5 62.828125 51.171875 63.5 52 63.5 C 52.828125 63.5 53.5 62.828125 53.5 62 C 53.5 61.171875 52.828125 60.5 52 60.5 Z M 52 60.5 "/>
</g>
</svg>
